<?xml version="1.0" encoding="utf-8"?>
<!-- Generator: Adobe Illustrator 21.0.0, SVG Export Plug-In . SVG Version: 6.00 Build 0)  -->
<svg version="1.1" id="Ebene_1" xmlns="http://www.w3.org/2000/svg" xmlns:xlink="http://www.w3.org/1999/xlink" x="0px" y="0px"
	 viewBox="0 0 64 64" style="enable-background:new 0 0 64 64;" xml:space="preserve">
<style type="text/css">
	.st0{fill:#1D1D1B;}
	.st1{fill:#1C1C1C;}
</style>
<path class="st0" d="M59.9,36c-3.1-3.7-7.8-6-12.9-6s-9.8,2.3-12.9,6c-2.5,3-4.1,6.8-4.1,11c0,9.4,7.6,17,17,17s17-7.6,17-17
	C64,42.8,62.5,39,59.9,36z M56.9,48.9c-0.4,2-1.3,3.8-2.8,5.2c-1.5,1.5-3.3,2.4-5.4,2.8c-0.6,0.1-1.2,0.2-1.8,0.2
	c-3.2,0-6.2-1.5-8.1-4.1l-1.3,1.7L37,48.8l0,0v-0.3l3.6-0.6l0,0l2.5-0.4L41.2,50c1.1,2.2,3.3,3.5,5.7,3.5c0.4,0,0.7,0,1.1-0.1
	c2.2-0.4,4-1.9,4.8-4l0.1-0.2l4-0.7L56.9,48.9z M57,45.7L57,45.7l-6.2,1.1l1.9-2.5c-1.1-2.2-3.3-3.6-5.7-3.6c-0.4,0-0.7,0-1.1,0.1
	c-2.2,0.4-4.1,1.9-4.9,4v0.3l-4,0.7l0.1-0.5c0.8-4.1,4-7.4,8.2-8.1c0.6-0.1,1.2-0.2,1.8-0.2c3.2,0,6.2,1.5,8.1,4.1l1.3-1.7l0.5,5.8
	L57,45.7L57,45.7z"/>
<g>
	<path class="st1" d="M6.8,26.9c0-2.3,0.7-4.5,1.9-6.2c1.7-2.5,4.1-3.9,6.9-4.2C17.3,12,20.7,9,25,8.1c1.1-0.4,2.4-0.4,3.5-0.4
		c4,0,7.4,1.7,10.3,5h0.8c3.4,0,6.1,1.8,7.5,4.9H48c3.3,0,6.2,1.7,7.9,4.7l8-8.3L50.6,0v6.1h-35C14.8,6,14.1,6,13.4,6
		C3.4,6,0.6,12.4,0.1,18c0,0.3,0,0.6,0,0.9c0,0.6-0.1,1.1,0,1.7l0,1.4v12.2L6.8,26.9z"/>
	<path class="st1" d="M30.6,33c3.9-4.7,9.9-7.6,16.4-7.6c2.6,0,5.1,0.5,7.4,1.3c0-0.1-0.1-0.3-0.1-0.4c-0.1-1.9-1-3.6-2.5-4.8
		c-1.5-1.1-3.3-1.6-5.1-1.2c-1.1,0.4-1.4-0.5-1.5-0.9c-1-3-3.7-4.6-6.6-4l-0.1,0c-0.6,0-0.9-0.3-1.1-0.5c-3.2-3.9-6.9-5.2-11.6-4.2
		c-3.6,0.8-6.3,3.3-7.7,7.1c-0.4,1.1-1.2,1.4-2,1.6c-2,0.2-3.7,1.1-4.9,2.7c-1.4,1.8-2,4.2-1.5,6.6c0.5,2.4,2,4.3,4,5.3
		c1.9,1,4.1,1,6.1,0c0.2-0.1,0.6-0.3,0.9-0.1c0.2,0.1,0.3,0.3,0.3,0.6c0.2,0.6,0.5,1.3,0.8,2c1.1,2,2.8,3.2,4.7,3.6
		C27.4,37.6,28.8,35.1,30.6,33z"/>
	<g>
		<path class="st1" d="M25.8,43c-2.7-0.6-5-2.3-6.3-4.9l-0.4-0.7c-0.7,0.1-1.4,0.3-2.2,0.3c-4.2,0-8-2.9-9.4-7.1l-7.1,7.1l13,13.3
			v-6.3h12.2C25.6,44.2,25.6,43.6,25.8,43z"/>
		<path class="st1" d="M57.1,26.5l0.2,0.6v0.2c0,0.2,0,0.4-0.1,0.6c2.4,1.3,4.5,3,6.2,5c0.2,0.2,0.3,0.4,0.4,0.5
			c0.1-0.6,0.1-1.2,0.2-1.8V17.5l-7,7.5c0.1,0.5,0.1,0.8,0.1,1.3V26.5z"/>
	</g>
</g>
</svg>
