<?xml version="1.0" encoding="utf-8"?>
<!-- Generator: Adobe Illustrator 21.0.0, SVG Export Plug-In . SVG Version: 6.00 Build 0)  -->
<svg version="1.1" id="Ebene_1" xmlns="http://www.w3.org/2000/svg" xmlns:xlink="http://www.w3.org/1999/xlink" x="0px" y="0px"
	 viewBox="0 0 64 64" style="enable-background:new 0 0 64 64;" xml:space="preserve">
<style type="text/css">
	.st0{display:none;fill:#FFFFFF;}
	.st1{fill:#FFFFFF;}
</style>
<g>
	<path class="st0" d="M63.6,32.9c-4-4.8-10-7.7-16.6-7.7s-12.6,3-16.6,7.7c-3.2,3.9-5.3,8.7-5.3,14.1c0,12.1,9.8,21.8,21.8,21.8
		S68.8,59.1,68.8,47C68.8,41.6,66.9,36.7,63.6,32.9z"/>
	<path class="st1" d="M59.9,36c-3.1-3.7-7.8-6-12.9-6s-9.8,2.3-12.9,6c-2.5,3-4.1,6.8-4.1,11c0,9.4,7.6,17,17,17s17-7.6,17-17
		C64,42.8,62.5,39,59.9,36z M47,57.7c-1.4,0-2.6-1.1-2.6-2.6c0-1.4,1.1-2.6,2.6-2.6c1.4,0,2.6,1.1,2.6,2.6
		C49.6,56.5,48.4,57.7,47,57.7z M50,38.6l-0.9,10c0,0.7,0,2.5-2.1,2.5s-2.1-1.8-2.1-2.5l-0.9-10l0,0c0-1.4,1.3-2.6,3-2.6
		S50,37.1,50,38.6L50,38.6z"/>
</g>
<g>
	<path class="st1" d="M6.8,26.9c0-2.3,0.7-4.5,1.9-6.2c1.7-2.5,4.1-3.9,6.9-4.2C17.3,12,20.7,9,25,8.1c1.1-0.4,2.4-0.4,3.5-0.4
		c4,0,7.4,1.7,10.3,5h0.8c3.4,0,6.1,1.8,7.5,4.9H48c3.3,0,6.2,1.7,7.9,4.7l8-8.3L50.6,0v6.1h-35C14.8,6,14.1,6,13.4,6
		C3.4,6,0.6,12.4,0.1,18c0,0.3,0,0.6,0,0.9c0,0.6-0.1,1.1,0,1.7V22v12.2L6.8,26.9z"/>
	<path class="st1" d="M30.6,33c3.9-4.7,9.9-7.6,16.4-7.6c2.6,0,5.1,0.5,7.4,1.3c0-0.1-0.1-0.3-0.1-0.4c-0.1-1.9-1-3.6-2.5-4.8
		c-1.5-1.1-3.3-1.6-5.1-1.2c-1.1,0.4-1.4-0.5-1.5-0.9c-1-3-3.7-4.6-6.6-4h-0.1c-0.6,0-0.9-0.3-1.1-0.5c-3.2-3.9-6.9-5.2-11.6-4.2
		c-3.6,0.8-6.3,3.3-7.7,7.1c-0.4,1.1-1.2,1.4-2,1.6c-2,0.2-3.7,1.1-4.9,2.7c-1.4,1.8-2,4.2-1.5,6.6s2,4.3,4,5.3c1.9,1,4.1,1,6.1,0
		c0.2-0.1,0.6-0.3,0.9-0.1c0.2,0.1,0.3,0.3,0.3,0.6c0.2,0.6,0.5,1.3,0.8,2c1.1,2,2.8,3.2,4.7,3.6C27.4,37.6,28.8,35.1,30.6,33z"/>
	<g>
		<path class="st1" d="M25.8,43c-2.7-0.6-5-2.3-6.3-4.9l-0.4-0.7c-0.7,0.1-1.4,0.3-2.2,0.3c-4.2,0-8-2.9-9.4-7.1l-7.1,7.1l13,13.3
			v-6.3h12.2C25.6,44.2,25.6,43.6,25.8,43z"/>
		<path class="st1" d="M57.1,26.5l0.2,0.6v0.2c0,0.2,0,0.4-0.1,0.6c2.4,1.3,4.5,3,6.2,5c0.2,0.2,0.3,0.4,0.4,0.5
			c0.1-0.6,0.1-1.2,0.2-1.8V17.5L57,25c0.1,0.5,0.1,0.8,0.1,1.3V26.5z"/>
	</g>
</g>
</svg>
