<?xml version="1.0" encoding="utf-8"?>
<!-- Generator: Adobe Illustrator 21.0.0, SVG Export Plug-In . SVG Version: 6.00 Build 0)  -->
<svg version="1.1" id="Ebene_1" xmlns="http://www.w3.org/2000/svg" xmlns:xlink="http://www.w3.org/1999/xlink" x="0px" y="0px"
	 viewBox="0 0 64 64" style="enable-background:new 0 0 64 64;" xml:space="preserve">
<style type="text/css">
	.st0{fill:url(#SVGID_1_);}
	.st1{fill:url(#SVGID_2_);}
	.st2{fill:#D0D3D4;}
</style>
<g>
	<linearGradient id="SVGID_1_" gradientUnits="userSpaceOnUse" x1="33.3426" y1="4.4348" x2="30.5237" y2="43.7604">
		<stop  offset="0" style="stop-color:#DA291C"/>
		<stop  offset="1" style="stop-color:#BE3A34"/>
	</linearGradient>
	<path class="st0" d="M49.8,5.6v6.7h-34C5.2,11.5,0.8,17.1,0.1,24.6c0,0.9-0.2,1.8,0,2.7c0,0.5,0,0.9,0,1.2v13.1l0.1,0l7.5-8
		c0-2.1,0.5-4.2,1.8-6c1.6-2.3,3.9-3.7,6.6-3.9c0.2,0,0.2,0,0.2,0c1.6-4.4,4.8-7.4,9-8.3c1.1-0.4,2.3-0.4,3.4-0.4
		c3.7,0,7.1,1.6,9.9,5c0.4,0,0.7,0,1.1,0c3.2,0,5.8,1.8,7.1,4.8c0.4,0,0.7,0,1.1,0c3.4,0,6.2,1.9,7.6,5l8.7-9L49.8,5.6z"/>
	<linearGradient id="SVGID_2_" gradientUnits="userSpaceOnUse" x1="33.5193" y1="20.5286" x2="30.7175" y2="59.6167">
		<stop  offset="0" style="stop-color:#DA291C"/>
		<stop  offset="1" style="stop-color:#BE3A34"/>
	</linearGradient>
	<path class="st1" d="M64,22.8l-8,8.5c0.2,0.5,0.2,0.9,0.2,1.4c0,0.2,0,0.2,0,0.4l0.2,0.5v0.2c-0.2,4.8-3.5,8.5-8,8.9
		c-0.4,0-0.5,0-0.9,0c-0.2,0-0.4,0-0.5,0c-1.4,3.4-4.1,5.1-7.6,5.1h-0.2c-1.8,0-3.4-0.5-4.6-1.6c-1.6,1.6-3.5,2.7-5.8,2.8
		c-0.2,0-0.5,0-0.7,0c-3.4,0-6.4-1.8-8-4.8c-0.2-0.4-0.4-0.7-0.5-1.1c-0.9,0.2-1.6,0.4-2.5,0.4c-4.2,0-8-3.2-9-7.4l-8,8l14,14.3
		v-6.9h37.2c11-0.5,12.6-9.2,12.7-13.3V22.8z"/>
	<path class="st2" d="M46.3,26.3c-0.5,0.2-0.7,0-0.9-0.5c-1.1-3.2-3.9-5-7.1-4.2c-0.4,0-0.5-0.2-0.7-0.4c-3.2-3.9-7.1-5.3-11.9-4.2
		c-3.9,0.9-6.6,3.5-8,7.3c-0.4,0.9-0.9,1.1-1.6,1.2c-4.4,0.4-7.6,5-6.7,9.7c1.1,5,6,7.8,10.6,5.7c0.4-0.2,0.5-0.2,0.5,0.2
		c0.2,0.7,0.5,1.4,0.9,2.1c1.6,2.8,4.2,4.2,7.3,3.9c2.3-0.2,3.9-1.2,5.3-3c0.4-0.4,0.5-0.4,0.9,0c1.2,1.2,2.8,1.8,4.6,1.8
		c3-0.2,5.1-1.6,6.4-4.4c0.2-0.7,0.5-0.7,1.1-0.7c0.4,0,0.9,0,1.2,0c3.5-0.2,6.2-3.4,6.4-7.3c0-0.2-0.2-0.5-0.2-0.7
		C54.3,28.6,50.4,25.4,46.3,26.3"/>
</g>
</svg>
