<?xml version="1.0" encoding="utf-8"?>
<!-- Generator: Adobe Illustrator 21.0.0, SVG Export Plug-In . SVG Version: 6.00 Build 0)  -->
<svg version="1.1" id="Ebene_1" xmlns="http://www.w3.org/2000/svg" xmlns:xlink="http://www.w3.org/1999/xlink" x="0px" y="0px"
	 viewBox="0 0 64 64" style="enable-background:new 0 0 64 64;" xml:space="preserve">
<style type="text/css">
	.st0{fill:#FFC200;}
	.st1{fill:url(#SVGID_1_);}
	.st2{fill:#D0D3D4;}
	.st3{fill:url(#SVGID_2_);}
	.st4{fill:url(#SVGID_3_);}
</style>
<path class="st0" d="M59.9,36c-3.1-3.7-7.8-6-12.9-6s-9.8,2.3-12.9,6c-2.5,3-4.1,6.8-4.1,11c0,9.4,7.6,17,17,17s17-7.6,17-17
	C64,42.8,62.5,39,59.9,36z M45,55h-4V39h4V55z M53,55h-4V39h4V55z"/>
<g>
	<linearGradient id="SVGID_1_" gradientUnits="userSpaceOnUse" x1="33.1806" y1="-1.2447" x2="30.4835" y2="36.3819">
		<stop  offset="0" style="stop-color:#DA291C"/>
		<stop  offset="1" style="stop-color:#BE3A34"/>
	</linearGradient>
	<path class="st1" d="M6.7,26.9c0-2.3,0.7-4.5,1.9-6.2c1.7-2.5,4.1-3.9,6.9-4.2c1.7-4.5,5.1-7.5,9.4-8.4c1.1-0.4,2.4-0.4,3.5-0.4
		c4,0,7.4,1.7,10.3,5h0.8c3.4,0,6.1,1.8,7.5,4.9h0.9c3.3,0,6.2,1.7,7.9,4.7l8-8.3L50.5,0v6.1h-35C14.7,6,14,6,13.3,6
		C3.3,6,0.5,12.4,0,18c0,0.3,0,0.6,0,0.9c0,0.6-0.1,1.1,0,1.7V22v12.2L6.7,26.9z"/>
	<path class="st2" d="M30.5,33c3.9-4.7,9.9-7.6,16.4-7.6c2.6,0,5.1,0.5,7.4,1.3c0-0.1-0.1-0.3-0.1-0.4c-0.1-1.9-1-3.6-2.5-4.8
		c-1.5-1.1-3.3-1.6-5.1-1.2c-1.1,0.4-1.4-0.5-1.5-0.9c-1-3-3.7-4.6-6.6-4h-0.1c-0.6,0-0.9-0.3-1.1-0.5c-3.2-3.9-6.9-5.2-11.6-4.2
		c-3.6,0.8-6.3,3.3-7.7,7.1c-0.4,1.1-1.2,1.4-2,1.6c-2,0.2-3.7,1.1-4.9,2.7c-1.4,1.8-2,4.2-1.5,6.6s2,4.3,4,5.3c1.9,1,4.1,1,6.1,0
		c0.2-0.1,0.6-0.3,0.9-0.1c0.2,0.1,0.3,0.3,0.3,0.6c0.2,0.6,0.5,1.3,0.8,2c1.1,2,2.8,3.2,4.7,3.6C27.3,37.6,28.7,35.1,30.5,33z"/>
	<g>
		<linearGradient id="SVGID_2_" gradientUnits="userSpaceOnUse" x1="13.7111" y1="31.0492" x2="12.2865" y2="50.9242">
			<stop  offset="0" style="stop-color:#DA291C"/>
			<stop  offset="1" style="stop-color:#BE3A34"/>
		</linearGradient>
		<path class="st3" d="M25.7,43c-2.7-0.6-5-2.3-6.3-4.9L19,37.4c-0.7,0.1-1.4,0.3-2.2,0.3c-4.2,0-8-2.9-9.4-7.1l-7.1,7.1l13,13.3
			v-6.3h12.2C25.5,44.2,25.5,43.6,25.7,43z"/>
		<linearGradient id="SVGID_3_" gradientUnits="userSpaceOnUse" x1="61.2325" y1="17.3056" x2="60.0976" y2="33.1386">
			<stop  offset="0" style="stop-color:#DA291C"/>
			<stop  offset="1" style="stop-color:#BE3A34"/>
		</linearGradient>
		<path class="st4" d="M57,26.5l0.2,0.6v0.2c0,0.2,0,0.4-0.1,0.6c2.4,1.3,4.5,3,6.2,5c0.2,0.2,0.3,0.4,0.4,0.5
			c0.1-0.6,0.1-1.2,0.2-1.8V17.5l-7,7.5c0.1,0.5,0.1,0.8,0.1,1.3V26.5z"/>
	</g>
</g>
</svg>
